# xmcd
#
# Track frame offsets:
#	150
#	18010
#	36676
#	51246
#	67177
#	79816
#	89465
#	107578
#	126979
#	141787
#	160461
#	175675
#	187752
#	201078
#	218711
#	237039
#	252734
#	264455
#	282382
#	300646
#	316566
#	330424
#
# Disc length: 4589 seconds
#
# Revision: 1
# Processed by: cddbd v1.5.2PL0 Copyright (c) Steve Scherf et al.
# Submitted via: audiograbber 1.83.01
#
DISCID=3a11eb16
DTITLE=Various Artist - Gympie Music Muster - Celebrating 30 Years
DYEAR=2011
DGENRE=Country
TTITLE0=Montgomery Gentry - Back When I Knew It All
TTITLE1=Kasey Chambers - Someone Like Me
TTITLE2=Troy Cassar-Daley - Chasin' Rodeo
TTITLE3=Lee Kernaghan - Gold
TTITLE4=Catherine Britt - Holy River
TTITLE5=Shane Nicholson - Famous Last Words
TTITLE6=Doc Walker - If I Fall
TTITLE7=Adam Brand - The Worm
TTITLE8=Amber Lawrence - Women Like Me (Don't Like Girls Like You)
TTITLE9=Luke Austen - Sacred Bones
TTITLE10=Harmony James - Tailwind
TTITLE11=The Sunny Cowgirls - Get On It
TTITLE12=John Williamson - Cydi
TTITLE13=Graeme Connors - Everybody's Working In The Mine
TTITLE14=Bill Chambers - Drifting South
TTITLE15=Jasmine Rae - Hunky Country Boys
TTITLE16=James Blundell - Good Wood
TTITLE17=Steve Forde - Hurricane
TTITLE18=McAlister Kemp - All Kinds Of Tough
TTITLE19=Markus Meier - A Perfect Night
TTITLE20=Beccy Cole - Here You Come Again
TTITLE21=Adam Harvey - One More Beer
EXTD=
EXTT0=
EXTT1=
EXTT2=
EXTT3=
EXTT4=
EXTT5=
EXTT6=
EXTT7=
EXTT8=
EXTT9=
EXTT10=
EXTT11=
EXTT12=
EXTT13=
EXTT14=
EXTT15=
EXTT16=
EXTT17=
EXTT18=
EXTT19=
EXTT20=
EXTT21=
PLAYORDER=
